# xmcd
#
# Track frame offsets:
#	150
#	9203
#	24025
#	42935
#	61671
#	67077
#	86068
#	103494
#	125114
#	147142
#
# Disc length: 2098 seconds
#
# Revision: 0
# Processed by: cddbd v1.5.2PL0 Copyright (c) Steve Scherf et al.
# Submitted via: dBpowerAMP V4.0
#
DISCID=8208300a
DTITLE=James Brown - Godfather of Soul Collectors Edition 
DYEAR=2007
DGENRE=Blues
TTITLE0=Give it Up, Turn it Loose
TTITLE1=Get On the Good Foot
TTITLE2=Super Bad
TTITLE3=Sex Machine
TTITLE4=Hot Pants
TTITLE5=Body Heat
TTITLE6=Gonna Have A Funky Good Time
TTITLE7=James Brown Jam 1980
TTITLE8=It's Too Funky in Here
TTITLE9=Get Up Offa That Thang
EXTD=
EXTT0=
EXTT1=
EXTT2=
EXTT3=
EXTT4=
EXTT5=
EXTT6=
EXTT7=
EXTT8=
EXTT9=
PLAYORDER=
